<?xml version="1.0" encoding="utf-8"?>
<!-- Generator: Adobe Illustrator 26.0.2, SVG Export Plug-In . SVG Version: 6.00 Build 0)  -->
<svg version="1.1" xmlns="http://www.w3.org/2000/svg" xmlns:xlink="http://www.w3.org/1999/xlink" x="0px" y="0px"
	 viewBox="0 0 856 539.8" style="enable-background:new 0 0 856 539.8;" xml:space="preserve">
<style type="text/css">
	.st0{fill:#000023;}
	.st1{fill:#00002D;}
	.st2{fill:#00004B;}
	.st3{fill:#00005F;}
	.st4{fill:#000073;}
	.st5{display:none;fill:#000087;}
	.st6{fill:#DFC200;}
	.st7{stroke:#000000;stroke-miterlimit:10;}
	.st8{fill:none;stroke:#000000;stroke-miterlimit:10;}
</style>
<g id="Layer_2">
	<g>
		<path class="st0" d="M821.36,540H34.64C15.51,540,0,524.49,0,505.36V34.64C0,15.51,15.51,0,34.64,0h786.73
			C840.49,0,856,15.51,856,34.64v470.73C856,524.49,840.49,540,821.36,540z"/>
	</g>
</g>
<g id="Layer_1">
	<path class="st1" d="M851.5,463c1.5,0,3-0.01,4.5-0.03V29c0-16.02-12.98-29-29-29H388C388.27,255.75,595.68,463,851.5,463z"/>
	<path class="st2" d="M856,398.91V35.64C856,16.51,840.49,1,821.36,1H456.57C457.55,220.83,635.98,398.75,856,398.91z"/>
	<path class="st3" d="M856,301.99V35.64C856,16.51,840.49,1,821.36,1H554.01C554.83,167.21,689.67,301.72,856,301.99z"/>
	<path class="st4" d="M856,223.96V34.64C856,15.51,840.49,0,821.36,0H633c0,0.15-0.01,0.3-0.01,0.44
		C633,123.73,732.79,223.69,856,223.96z"/>
	<path class="st5" d="M856,139.99V35.64C856,16.51,840.49,1,821.36,1H716.02C716.82,77.74,779.14,139.73,856,139.99z"/>
</g>
<g id="Layer_3">
	<path class="st6" d="M190.77,193h-72.54c-8.41,0-15.23-6.82-15.23-15.23v-36.54c0-8.41,6.82-15.23,15.23-15.23h72.54
		c8.41,0,15.23,6.82,15.23,15.23v36.54C206,186.18,199.18,193,190.77,193z"/>
	<line class="st7" x1="103" y1="141" x2="206" y2="141"/>
	<line class="st7" x1="103" y1="178.5" x2="206" y2="178.5"/>
	<path class="st8" d="M164.97,178.5h-20.19c-2.37,0-4.28-1.92-4.28-4.28v-28.43c0-2.37,1.92-4.28,4.28-4.28h20.19
		c2.37,0,4.28,1.92,4.28,4.28v28.43C169.26,176.58,167.34,178.5,164.97,178.5z"/>
</g>
</svg>
